<svg width="32" height="32" viewBox="0 0 32 32" fill="none" xmlns="http://www.w3.org/2000/svg">
  <rect width="32" height="32" rx="6" fill="#2563eb"/>
  <path d="M9 10C9 9.44772 9.44772 9 10 9H22C22.5523 9 23 9.44772 23 10V11C23 11.5523 22.5523 12 22 12H10C9.44772 12 9 11.5523 9 11V10Z" fill="white"/>
  <path d="M9 15.5C9 14.9477 9.44772 14.5 10 14.5H18C18.5523 14.5 19 14.9477 19 15.5C19 16.0523 18.5523 16.5 18 16.5H10C9.44772 16.5 9 16.0523 9 15.5Z" fill="white" fill-opacity="0.8"/>
  <path d="M9 19.5C9 18.9477 9.44772 18.5 10 18.5H16C16.5523 18.5 17 18.9477 17 19.5C17 20.0523 16.5523 20.5 16 20.5H10C9.44772 20.5 9 20.0523 9 19.5Z" fill="white" fill-opacity="0.8"/>
  <path d="M20 19C20 18.4477 20.4477 18 21 18H22C22.5523 18 23 18.4477 23 19V22C23 22.5523 22.5523 23 22 23H21C20.4477 23 20 22.5523 20 22V19Z" fill="#10b981"/>
</svg>
